<?xml version="1.0" encoding="utf-8"?>
<!-- Generator: Adobe Illustrator 19.1.0, SVG Export Plug-In . SVG Version: 6.00 Build 0)  -->
<svg version="1.1" id="Layer_1" xmlns="http://www.w3.org/2000/svg" xmlns:xlink="http://www.w3.org/1999/xlink" x="0px" y="0px"
	 viewBox="0 0 178.8 208.1" style="enable-background:new 0 0 178.8 208.1;" xml:space="preserve">
<path style="fill:#ECECEC;" d="M32.4,4.4c0,0,11.9-4.6,15.8-4c3.9,0.6,13,0.6,16,1.9c3,1.4,1.1-3,4.7-2c3.6,1,7.2,3.4,8.3,4
	c1.1,0.6,13,3.6,14.7,6.7c1.7,3,1.7,29.2,0,34c-1.7,4.9-4.1,6.4-6.6,1.2c-2.5-5.2-4.7-15.2-4.7-11.9c0,3.3-1.9,14.9-3,17
	c-1.1,2.1-2.8,6.4-1.9,7.3c0.8,0.9,7.2,2.1,9.4,2.4c2.2,0.3,16,4.3,19.4,3c3.3-1.2,20.7-11.5,23.2-13.7c2.5-2.1,22.4-8.5,27.4-8.2
	c5,0.3,19.1-0.3,21.8,2.4c2.8,2.7,3.3,5.2-1.9,6.4c-5.3,1.2-22.1,1.5-24.6,3.6c-2.5,2.1-16.6,8.2-18.5,11.2c-1.9,3-10.2,6.1-9.1,8.5
	c1.1,2.4,3.6,8.5,4.7,11.6c1.1,3,6.4,20.1,6.1,21.6c-0.3,1.5,4.4,9.7,5.5,13.4c1.1,3.6,4.4,19.5,4.1,22.2c-0.3,2.7,1.7,2.7,1.7,4.9
	c0,2.1,2.5,11.5,1.7,14c-0.8,2.4-1.4,16.1-0.8,18.2c0.6,2.1,2.2,16.4-0.3,15.8c-2.5-0.6-15.2,2.1-16.6-2.1
	c-1.4-4.3,1.4-11.6,2.2-12.8c0.8-1.2,2.5-13.7,0.8-18.2c-1.7-4.6-2.2-15.8-2.2-15.8s-10-12.8-11.9-14.9c-1.9-2.1-2.2-7-4.1-4.9
	c-1.9,2.1-9.1,4.6-10.2,6.1c-1.1,1.5-3.6,5.5-3.3,8.2c0.3,2.7-3,27.4-3,29.8c0,2.4-2.5,14-0.8,17.3c1.7,3.3,2.5,12.8,1.7,15.2
	c-0.8,2.4-8.6,4.3-11.9,4c-3.3-0.3-15.2,0-13.8-5.5c1.4-5.5,6.1-15.2,3.6-15.5c-2.5-0.3-14.9-0.3-14.4-4.3c0.6-4,5-8.8,6.9-10.3
	c1.9-1.5,11.1-13.4,8.3-20.4c-2.8-7-0.8-10.9-4.7-9.7c-3.9,1.2-10.8,0.3-14.1,0c-3.3-0.3-13.8-13.4-14.4-10
	c-0.6,3.3-2.2,16.7-1.9,20.4c0.3,3.6-2.5,14.6-1.4,18.8c1.1,4.3,0.8,17.9-0.3,21.6c-1.1,3.6-3,10.6-5.8,10.9
	c-2.8,0.3-27.6,3.3-24.9-2.4c2.8-5.8,10.2-12.8,12.7-14.9c2.5-2.1,2.5-4,1.9-7.9c-0.6-4,1.7-17.6-0.3-23.1
	c-1.9-5.5-3.3-21.3-2.5-24.9c0.8-3.6,2.8-9.1,0.3-15.2c-2.5-6.1,0.6-27.4,2.2-33.1c1.7-5.8,5.3-11.9,4.1-16.1c0,0-5-9.7-6-13.6
	c-1-3.9,0.2-13.2-1.9-10.7c-2.1,2.5-1.9,4.8-5.4,2.3C10.7,41.9,3,32.3,1.3,24.8c-1.7-7.5-2.5-9.6,2.1-12.5c4.6-3,18.9-9.3,18.9-10
	c0-0.7,2.5-3,4.4-1.9C28.5,1.3,32.4,4.4,32.4,4.4z"/>
<g>
</g>
<g>
</g>
<g>
</g>
<g>
</g>
<g>
</g>
<g>
</g>
<g>
</g>
<g>
</g>
<g>
</g>
<g>
</g>
<g>
</g>
<g>
</g>
<g>
</g>
<g>
</g>
<g>
</g>
</svg>
