<?xml version="1.0" encoding="utf-8"?>
<!-- Generator: Adobe Illustrator 19.1.0, SVG Export Plug-In . SVG Version: 6.00 Build 0)  -->
<svg version="1.1" id="Layer_1" xmlns="http://www.w3.org/2000/svg" xmlns:xlink="http://www.w3.org/1999/xlink" x="0px" y="0px"
	 viewBox="0 0 555.1 555.1" style="enable-background:new 0 0 555.1 555.1;" xml:space="preserve">
<path style="fill:#ECECEC;" d="M547.6,474.6L405.5,332.5c20.3-33.1,32.6-71.7,32.6-113.4C438.1,98.1,340,0,219,0
	C98.1,0,0,98.1,0,219c0,120.9,98.1,219,219,219c41.7,0,80.3-12.3,113.4-32.5l142.1,142c10,10,26.5,9.9,36.5,0l36.5-36.5
	C557.6,501.1,557.6,484.6,547.6,474.6z M219,365.1c-80.6,0-146-65.4-146-146S138.4,73,219,73s146,65.4,146,146
	S299.7,365.1,219,365.1z"/>
<g>
</g>
<g>
</g>
<g>
</g>
<g>
</g>
<g>
</g>
<g>
</g>
<g>
</g>
<g>
</g>
<g>
</g>
<g>
</g>
<g>
</g>
<g>
</g>
<g>
</g>
<g>
</g>
<g>
</g>
</svg>
